<?xml version="1.0" encoding="UTF-8" standalone="no"?><svg xmlns="http://www.w3.org/2000/svg" xmlns:xlink="http://www.w3.org/1999/xlink" contentScriptType="application/ecmascript" contentStyleType="text/css" height="565.2px" preserveAspectRatio="none" style="width:500px;height:565px;" version="1.1" viewBox="0 0 500 565" width="500.4px" zoomAndPan="magnify"><defs><filter height="300%" id="f1412mj7mtgiei" width="300%" x="-1" y="-1"><feGaussianBlur result="blurOut" stdDeviation="1.8"/><feColorMatrix in="blurOut" result="blurOut2" type="matrix" values="0 0 0 0 0 0 0 0 0 0 0 0 0 0 0 0 0 0 .4 0"/><feOffset dx="3.6" dy="3.6" in="blurOut2" result="blurOut3"/><feBlend in="SourceGraphic" in2="blurOut3" mode="normal"/></filter></defs><g><ellipse cx="195.1807" cy="16.2" fill="#000000" filter="url(#f1412mj7mtgiei)" rx="9" ry="9" style="stroke: none; stroke-width: 0.9;"/><rect fill="#FEFECE" filter="url(#f1412mj7mtgiei)" height="45" rx="11.25" ry="11.25" style="stroke: #A80036; stroke-width: 1.35;" width="108" x="141.1807" y="80.1"/><line style="stroke: #A80036; stroke-width: 1.35;" x1="141.1807" x2="249.1807" y1="103.7672" y2="103.7672"/><text fill="#000000" font-family="sans-serif" font-size="12.6" lengthAdjust="spacingAndGlyphs" textLength="90" x="150.1807" y="96.2956">none_pressed</text><rect fill="#FEFECE" filter="url(#f1412mj7mtgiei)" height="45" rx="11.25" ry="11.25" style="stroke: #A80036; stroke-width: 1.35;" width="81.9" x="35.4307" y="194.4"/><line style="stroke: #A80036; stroke-width: 1.35;" x1="35.4307" x2="117.3307" y1="218.0672" y2="218.0672"/><text fill="#000000" font-family="sans-serif" font-size="12.6" lengthAdjust="spacingAndGlyphs" textLength="63.9" x="44.4307" y="210.5956">x_pressed</text><rect fill="#FEFECE" filter="url(#f1412mj7mtgiei)" height="45" rx="11.25" ry="11.25" style="stroke: #A80036; stroke-width: 1.35;" width="81.9" x="273.0307" y="194.4"/><line style="stroke: #A80036; stroke-width: 1.35;" x1="273.0307" x2="354.9307" y1="218.0672" y2="218.0672"/><text fill="#000000" font-family="sans-serif" font-size="12.6" lengthAdjust="spacingAndGlyphs" textLength="63.9" x="282.0307" y="210.5956">y_pressed</text><rect fill="#FEFECE" filter="url(#f1412mj7mtgiei)" height="45" rx="11.25" ry="11.25" style="stroke: #A80036; stroke-width: 1.35;" width="159.3" x="115.5307" y="308.7"/><line style="stroke: #A80036; stroke-width: 1.35;" x1="115.5307" x2="274.8307" y1="332.3672" y2="332.3672"/><text fill="#000000" font-family="sans-serif" font-size="12.6" lengthAdjust="spacingAndGlyphs" textLength="141.3" x="124.5307" y="324.8956">both_buttons_pressed</text><rect fill="#FEFECE" filter="url(#f1412mj7mtgiei)" height="45" rx="11.25" ry="11.25" style="stroke: #A80036; stroke-width: 1.35;" width="158.4" x="21.4807" y="423"/><line style="stroke: #A80036; stroke-width: 1.35;" x1="21.4807" x2="179.8807" y1="446.6672" y2="446.6672"/><text fill="#000000" font-family="sans-serif" font-size="12.6" lengthAdjust="spacingAndGlyphs" textLength="140.4" x="30.4807" y="439.1956">terminating_y_pressed</text><rect fill="#FEFECE" filter="url(#f1412mj7mtgiei)" height="45" rx="11.25" ry="11.25" style="stroke: #A80036; stroke-width: 1.35;" width="158.4" x="211.3807" y="423"/><line style="stroke: #A80036; stroke-width: 1.35;" x1="211.3807" x2="369.7807" y1="446.6672" y2="446.6672"/><text fill="#000000" font-family="sans-serif" font-size="12.6" lengthAdjust="spacingAndGlyphs" textLength="140.4" x="220.3807" y="439.1956">terminating_x_pressed</text><ellipse cx="195.1807" cy="546.3" fill="none" filter="url(#f1412mj7mtgiei)" rx="9" ry="9" style="stroke: #000000; stroke-width: 0.9;"/><ellipse cx="195.6307" cy="546.75" fill="#000000" rx="5.4" ry="5.4" style="stroke: none; stroke-width: 0.9;"/><!--link *start to none_pressed--><path d="M195.1807,25.4463 C195.1807,37.2247 195.1807,58.1 195.1807,75.1686 " fill="none" id="*start-none_pressed" style="stroke: #A80036; stroke-width: 0.9;"/><polygon fill="#A80036" points="195.1807,79.8712,198.7807,71.7712,195.1807,75.3712,191.5807,71.7712,195.1807,79.8712" style="stroke: #A80036; stroke-width: 0.9;"/><!--link none_pressed to x_pressed--><path d="M141.0575,109.7043 C92.2546,117.352 25.7612,131.2931 9.7807,152.1 C-2.283,167.8072 12.5403,183.352 31.2373,195.2777 " fill="none" id="none_pressed-x_pressed" style="stroke: #A80036; stroke-width: 0.9;"/><polygon fill="#A80036" points="35.2776,197.7663,30.2692,190.4529,31.4462,195.4061,26.4929,196.5831,35.2776,197.7663" style="stroke: #A80036; stroke-width: 0.9;"/><text fill="#000000" font-family="sans-serif" font-size="11.7" lengthAdjust="spacingAndGlyphs" textLength="82.8" x="10.6807" y="163.8602">[is_x_pressed]</text><!--link x_pressed to none_pressed--><path d="M93.2314,194.2278 C103.3482,181.2704 116.8482,165.0704 130.3807,152.1 C139.1327,143.7116 149.2801,135.3963 158.9102,128.044 " fill="none" id="x_pressed-none_pressed" style="stroke: #A80036; stroke-width: 0.9;"/><polygon fill="#A80036" points="162.7134,125.169,154.081,127.1818,159.1237,127.8827,158.4229,132.9254,162.7134,125.169" style="stroke: #A80036; stroke-width: 0.9;"/><text fill="#000000" font-family="sans-serif" font-size="11.7" lengthAdjust="spacingAndGlyphs" textLength="86.4" x="131.2807" y="163.8602">[is_x_released]</text><!--link none_pressed to y_pressed--><path d="M214.5452,125.1889 C225.8275,137.9698 240.5559,154.0221 254.5807,167.4 C263.0701,175.4978 272.6863,183.8359 281.6704,191.3063 " fill="none" id="none_pressed-y_pressed" style="stroke: #A80036; stroke-width: 0.9;"/><polygon fill="#A80036" points="285.2105,194.2328,281.2612,186.2972,281.7422,191.3656,276.6738,191.8466,285.2105,194.2328" style="stroke: #A80036; stroke-width: 0.9;"/><text fill="#000000" font-family="sans-serif" font-size="11.7" lengthAdjust="spacingAndGlyphs" textLength="82.8" x="255.4807" y="163.8602">[is_y_pressed]</text><!--link y_pressed to none_pressed--><path d="M335.0593,194.3982 C344.6695,181.3454 352.0549,164.9921 342.7807,152.1 C331.9365,137.0255 290.2066,123.8719 253.8729,114.9205 " fill="none" id="y_pressed-none_pressed" style="stroke: #A80036; stroke-width: 0.9;"/><polygon fill="#A80036" points="249.4711,113.8497,256.4907,119.2623,253.8436,114.9134,258.1925,112.2663,249.4711,113.8497" style="stroke: #A80036; stroke-width: 0.9;"/><text fill="#000000" font-family="sans-serif" font-size="11.7" lengthAdjust="spacingAndGlyphs" textLength="86.4" x="347.2807" y="163.8602">[is_y_released]</text><!--link y_pressed to both_buttons_pressed--><path d="M305.3634,239.5262 C299.4258,252.9421 290.507,269.6275 278.8807,281.7 C269.911,291.0139 258.8161,299.1856 247.6706,306.0647 " fill="none" id="y_pressed-both_buttons_pressed" style="stroke: #A80036; stroke-width: 0.9;"/><polygon fill="#A80036" points="243.5659,308.5404,252.3613,307.4395,247.4192,306.2162,248.6425,301.2742,243.5659,308.5404" style="stroke: #A80036; stroke-width: 0.9;"/><text fill="#000000" font-family="sans-serif" font-size="11.7" lengthAdjust="spacingAndGlyphs" textLength="199.8" x="290.5807" y="278.1602">[is_x_pressed] / indicate_shutdown</text><!--link x_pressed to both_buttons_pressed--><path d="M67.3876,239.4023 C63.6014,252.773 61.7567,269.4543 70.0807,281.7 C80.0067,296.3023 94.9787,306.5971 111.1513,313.8548 " fill="none" id="x_pressed-both_buttons_pressed" style="stroke: #A80036; stroke-width: 0.9;"/><polygon fill="#A80036" points="115.2864,315.6354,109.2707,309.1253,111.1533,313.8556,106.423,315.7383,115.2864,315.6354" style="stroke: #A80036; stroke-width: 0.9;"/><text fill="#000000" font-family="sans-serif" font-size="11.7" lengthAdjust="spacingAndGlyphs" textLength="199.8" x="70.9807" y="278.1602">[is_y_pressed] / indicate_shutdown</text><!--link both_buttons_pressed to terminating_y_pressed--><path d="M171.392,353.8953 C163.2282,362.0768 154.2275,371.5521 146.5807,380.7 C136.4919,392.7691 126.2781,406.9526 118.055,418.968 " fill="none" id="both_buttons_pressed-terminating_y_pressed" style="stroke: #A80036; stroke-width: 0.9;"/><polygon fill="#A80036" points="115.3456,422.9535,122.8766,418.2787,117.8755,419.232,116.9222,414.2308,115.3456,422.9535" style="stroke: #A80036; stroke-width: 0.9;"/><text fill="#000000" font-family="sans-serif" font-size="11.7" lengthAdjust="spacingAndGlyphs" textLength="86.4" x="147.4807" y="392.4602">[is_x_released]</text><!--link both_buttons_pressed to terminating_x_pressed--><path d="M215.1555,353.7092 C222.5283,362.1163 230.9049,371.7853 238.3807,380.7 C248.896,393.2393 260.3264,407.3698 269.8032,419.2278 " fill="none" id="both_buttons_pressed-terminating_x_pressed" style="stroke: #A80036; stroke-width: 0.9;"/><polygon fill="#A80036" points="272.6783,422.8306,270.4397,414.254,269.8714,419.3134,264.812,418.7451,272.6783,422.8306" style="stroke: #A80036; stroke-width: 0.9;"/><text fill="#000000" font-family="sans-serif" font-size="11.7" lengthAdjust="spacingAndGlyphs" textLength="86.4" x="250.0807" y="392.4602">[is_y_released]</text><!--link terminating_y_pressed to *end--><path d="M93.3512,468.1019 C90.4589,481.5089 89.5544,498.1935 97.9807,510.3 C107.811,524.4237 157.2021,537.5367 181.5582,543.2666 " fill="none" id="terminating_y_pressed-*end" style="stroke: #A80036; stroke-width: 0.9;"/><polygon fill="#A80036" points="186.0765,544.3122,178.9969,538.9785,181.6924,543.2975,177.3734,545.993,186.0765,544.3122" style="stroke: #A80036; stroke-width: 0.9;"/><text fill="#000000" font-family="sans-serif" font-size="11.7" lengthAdjust="spacingAndGlyphs" textLength="152.1" x="98.8807" y="506.7602">[is_y_released] / shutdown</text><!--link terminating_x_pressed to *end--><path d="M281.9454,468.109 C276.0012,481.5186 267.082,498.2034 255.4807,510.3 C241.8327,524.5307 221.3645,535.1482 208.1393,541.0386 " fill="none" id="terminating_x_pressed-*end" style="stroke: #A80036; stroke-width: 0.9;"/><polygon fill="#A80036" points="203.9522,542.8534,212.8158,542.9352,208.0811,541.0638,209.9525,536.329,203.9522,542.8534" style="stroke: #A80036; stroke-width: 0.9;"/><text fill="#000000" font-family="sans-serif" font-size="11.7" lengthAdjust="spacingAndGlyphs" textLength="152.1" x="267.1807" y="506.7602">[is_x_released] / shutdown</text><!--
@startuml
     scale 0.9
     skinparam classFontColor white
     
     [*] - -> none_pressed

     none_pressed - -> x_pressed : [is_x_pressed]
     none_pressed - -> y_pressed : [is_y_pressed]

     y_pressed - -> none_pressed : [is_y_released]
     y_pressed - -> both_buttons_pressed : [is_x_pressed] / indicate_shutdown

     x_pressed - -> none_pressed : [is_x_released]
     x_pressed - -> both_buttons_pressed : [is_y_pressed] / indicate_shutdown

     both_buttons_pressed - -> terminating_y_pressed : [is_x_released]
     both_buttons_pressed - -> terminating_x_pressed : [is_y_released]

     terminating_y_pressed - -> [*] : [is_y_released] / shutdown
     terminating_x_pressed - -> [*] : [is_x_released] / shutdown
@enduml

PlantUML version 1.2019.03(Sun Mar 10 11:04:44 GMT 2019)
(GPL source distribution)
Java Runtime: OpenJDK Runtime Environment
JVM: OpenJDK 64-Bit Server VM
Java Version: 1.8.0_212-b01
Operating System: Linux
OS Version: 4.19.28-1-MANJARO
Default Encoding: UTF-8
Language: en
Country: US
--></g></svg>